<?xml version="1.0" encoding="iso-8859-1"?>
<!-- Generator: Adobe Illustrator 18.1.1, SVG Export Plug-In . SVG Version: 6.00 Build 0)  -->
<svg version="1.1" id="Capa_1" xmlns="http://www.w3.org/2000/svg" xmlns:xlink="http://www.w3.org/1999/xlink" x="0px" y="0px"
	 viewBox="0 0 47.855 47.855" style="enable-background:new 0 0 47.855 47.855;" xml:space="preserve">
<g>
	<g>
		<path style="fill:#010002;" d="M23.928,19.371c-5.675,0-10.866,2.886-13.885,7.719c-0.731,1.171-0.375,2.713,0.796,3.445
			c1.17,0.73,2.713,0.375,3.445-0.797c2.099-3.361,5.705-5.367,9.644-5.367s7.544,2.006,9.644,5.367
			c0.474,0.76,1.289,1.177,2.122,1.177c0.453,0,0.91-0.123,1.322-0.38c1.171-0.731,1.527-2.273,0.796-3.445
			C34.794,22.257,29.604,19.371,23.928,19.371z"/>
		<path style="fill:#010002;" d="M47.476,21.07C42.365,12.883,33.562,7.996,23.928,7.996S5.492,12.883,0.38,21.07
			c-0.731,1.171-0.375,2.713,0.796,3.444c1.172,0.73,2.714,0.375,3.445-0.796c4.192-6.714,11.41-10.722,19.307-10.722
			s15.115,4.008,19.307,10.722c0.474,0.759,1.289,1.176,2.122,1.176c0.452,0,0.91-0.122,1.322-0.38
			C47.851,23.782,48.207,22.241,47.476,21.07z"/>
		<circle style="fill:#010002;" cx="23.928" cy="35.745" r="4.114"/>
	</g>
</g>
<g>
</g>
<g>
</g>
<g>
</g>
<g>
</g>
<g>
</g>
<g>
</g>
<g>
</g>
<g>
</g>
<g>
</g>
<g>
</g>
<g>
</g>
<g>
</g>
<g>
</g>
<g>
</g>
<g>
</g>
</svg>
